<svg xmlns="http://www.w3.org/2000/svg" viewBox="0 0 167.98 78.26"><defs><style>.cls-1{fill:#12132f;}</style></defs><g id="Layer_2" data-name="Layer 2"><g id="Layer_1-2" data-name="Layer 1"><polygon class="cls-1" points="17.38 20.41 12.22 11.87 9.2 11.87 9.2 28.96 12.01 28.96 12.01 16.75 17.21 25.37 17.55 25.37 22.75 16.78 22.75 28.96 25.55 28.96 25.55 11.87 22.55 11.87 17.38 20.41"/><path class="cls-1" d="M15.3,64l-.88,2.72h1.34l.74-2.3a6.66,6.66,0,0,0,4.81-.68,5.81,5.81,0,0,0,2.24-2.32l-2.27-1.29A3.42,3.42,0,0,1,20,61.48,3.77,3.77,0,0,1,18,62a3.71,3.71,0,0,1-.74-.07l2.35-7.25a3.12,3.12,0,0,1,1.59,1.53l2.27-1.32a5.69,5.69,0,0,0-3.05-2.71l.82-2.56H20l-.72,2.22a6.79,6.79,0,0,0-1.17-.09,6.3,6.3,0,0,0-6.45,6.42,6.42,6.42,0,0,0,1,3.51A6.09,6.09,0,0,0,15.3,64Zm0-8.56a3.68,3.68,0,0,1,2.71-1.1,1.77,1.77,0,0,1,.37,0l-2.31,7.13a3.65,3.65,0,0,1-1.36-1.37,3.93,3.93,0,0,1-.5-2A3.72,3.72,0,0,1,15.34,55.42Z"/><path class="cls-1" d="M48.81,11.87,42.61,29h3l1.2-3.44h7.27L55.33,29h3L52.18,11.87Zm-1,11,2.71-7.71,2.7,7.71Z"/><polygon class="cls-1" points="56.1 64.02 48.53 64.02 48.53 59.4 55.37 59.4 55.37 56.74 48.53 56.74 48.53 52.3 55.98 52.3 55.98 49.61 45.73 49.61 45.73 66.7 56.1 66.7 56.1 64.02"/><polygon class="cls-1" points="90.46 11.87 87.12 11.87 80.62 19.54 80.62 11.87 77.81 11.87 77.81 28.96 80.62 28.96 80.62 20.82 87.36 28.96 90.7 28.96 83.55 20.2 90.46 11.87"/><polygon class="cls-1" points="79.74 55.1 87.8 66.7 90 66.7 90 49.61 87.19 49.61 87.19 61.29 79.08 49.61 76.94 49.61 76.94 66.7 79.74 66.7 79.74 55.1"/><polygon class="cls-1" points="114.95 21.66 121.78 21.66 121.78 19 114.95 19 114.95 14.56 122.39 14.56 122.39 11.87 112.14 11.87 112.14 28.96 122.52 28.96 122.52 26.28 114.95 26.28 114.95 21.66"/><polygon class="cls-1" points="115.51 66.7 118.31 66.7 118.31 52.3 123.13 52.3 123.13 49.61 110.67 49.61 110.67 52.3 115.51 52.3 115.51 66.7"/><path class="cls-1" d="M154.71,21.71a10.87,10.87,0,0,0-.77-.83,4.35,4.35,0,0,0-1-.68c-.45-.23-.81-.4-1.07-.52l-1.19-.46V14.39a2.91,2.91,0,0,1,2.17,1.93L155.18,15a5.41,5.41,0,0,0-4.54-3.35V9.43h-1.59v2.15A5.65,5.65,0,0,0,145.66,13a4.34,4.34,0,0,0-1.37,3.32,4.81,4.81,0,0,0,.38,2,3.69,3.69,0,0,0,1.15,1.43,8.7,8.7,0,0,0,1.45.91c.46.22,1,.47,1.78.75V26.5a3.57,3.57,0,0,1-3.12-2.4l-2.42,1.4a5.45,5.45,0,0,0,2.08,2.66,6.75,6.75,0,0,0,3.46,1.09V31.4h1.59V29.23a5.86,5.86,0,0,0,3.48-1.57,4.53,4.53,0,0,0,1.33-3.39,5.7,5.7,0,0,0-.17-1.42A3.06,3.06,0,0,0,154.71,21.71Zm-5.66-3.12a5,5,0,0,1-1.5-1,1.78,1.78,0,0,1-.45-1.25,1.86,1.86,0,0,1,.53-1.34,2.47,2.47,0,0,1,1.42-.68Zm3.08,7.1a2.58,2.58,0,0,1-1.49.78V22a5,5,0,0,1,1.51,1,1.79,1.79,0,0,1,.49,1.31A2,2,0,0,1,152.13,25.69Z"/><path class="cls-1" d="M152.24,63.66a3.78,3.78,0,0,1-2.38.62,4.09,4.09,0,0,1-4.25-2.88l-2.42,1.42a5.94,5.94,0,0,0,2.41,3.08A7.57,7.57,0,0,0,149.79,67a6.73,6.73,0,0,0,4.38-1.36A4.47,4.47,0,0,0,155.84,62a5.43,5.43,0,0,0-.19-1.51,3,3,0,0,0-.67-1.19,9.92,9.92,0,0,0-.88-.86,4.44,4.44,0,0,0-1.25-.66l-1.27-.48-1.41-.53a10.06,10.06,0,0,1-2.71-1.14,1.72,1.72,0,0,1-.75-1.47,1.86,1.86,0,0,1,.73-1.55,3.11,3.11,0,0,1,2-.57A3.68,3.68,0,0,1,153,54.42l2.37-1.37a6.34,6.34,0,0,0-5.95-3.76,6,6,0,0,0-3.89,1.33,4.45,4.45,0,0,0-1.61,3.61,4.5,4.5,0,0,0,.42,2,3.58,3.58,0,0,0,1.26,1.43,7.41,7.41,0,0,0,1.61.85c.51.2,1.16.44,2,.73a13.12,13.12,0,0,1,3,1.21A1.77,1.77,0,0,1,153,62,1.94,1.94,0,0,1,152.24,63.66Z"/><path class="cls-1" d="M134.67,0H0V78.26H168V0ZM101.36,1.42h31.89v37H101.36Zm-33.31,0H99.94v37H68.05Zm-33.32,0h31.9v37H34.73Zm-33.31,0H33.31v37H1.42ZM33.31,76.84H1.42v-37H33.31Zm33.32,0H34.73v-37h31.9Zm33.31,0H68.05v-37H99.94Zm33.31,0H101.36v-37h31.89Zm33.31,0H134.67v-37h31.89ZM134.67,38.42v-37h31.89v37Z"/></g></g></svg>