<svg xmlns="http://www.w3.org/2000/svg" viewBox="0 0 31.17 26.72"><title>sw-09</title><path d="M7.83,26.72a3.09,3.09,0,1,1,3.09-3.09A3.09,3.09,0,0,1,7.83,26.72Zm0-4.73a1.64,1.64,0,1,0,1.64,1.64A1.64,1.64,0,0,0,7.83,22Z" fill="#fff"/><path d="M20.13,26.72a3.09,3.09,0,1,1,3.09-3.09A3.09,3.09,0,0,1,20.13,26.72Zm0-4.73a1.64,1.64,0,1,0,1.64,1.64A1.64,1.64,0,0,0,20.13,22Z" fill="#fff"/><path d="M30.2,0H26.28a1,1,0,0,0-1,.76l-1,4.16L24,6.36H0L.39,7.57s0,0,0,.06l.22.66h0L4,18.39a1,1,0,0,0,.93.67H21.06l-.57,2.44H8.94c-.54,0,.78,1.46,1,1.46h8.12c.88,0,.6-2,3.95-1.23L26.73,1.46h3.59c.54,0,.86-.27.86-.73S30.74,0,30.2,0ZM23.49,8.64l-.2.87-1.9,8.11H5.33L2.07,7.82H23.7Z" fill="#fff"/><rect x="3.7" y="13.62" width="18.97" height="1.45" fill="#fff"/></svg>