<svg xmlns="http://www.w3.org/2000/svg" viewBox="0 0 34.35 34.25"><title>sw-18</title><path d="M34.25,14.27c-.39-.33-2.41-2.08-4.41-3.76v-8h0V.88H24.61v1.6h3.63l0,8.68v.12h0l5,4.2.09.08,1-1.21Z" fill="#fff"/><path d="M24.61,8h1.6V1.3h-1.6V6.24C21.2,3.37,17.77.46,17.74.43L17.23,0,0,13.84l1,1.25,16.2-13C18.27,3,21.61,5.53,24.61,8Z" fill="#fff"/><path d="M31,16.22h-.09L17.23,5.08,3.18,16.21H3v18H31L31,16.42l.06-.07-.06,0ZM20,24.8v7.7H14V24.8Zm-7.72-1.68v9.53H4.63V17.09l12.57-10,12.2,9.91,0,15.6H21.72V23.12Z" fill="#fff"/></svg>