<svg xmlns="http://www.w3.org/2000/svg" viewBox="0 0 26.76 33.64"><title>sw-42</title><path d="M22.7,27.48,26.75,3.85a.37.37,0,0,0-.3-.42l-3.6-.62a.37.37,0,0,0-.41.25A3.52,3.52,0,0,1,22,4h0a3,3,0,0,1-5.21-.89h0C16.7,2.66,20.69,21.44,22,27.51A.37.37,0,0,0,22.7,27.48ZM17.21,5.54l.36.21a4.51,4.51,0,0,0,1.37.47,4.46,4.46,0,0,0,4.56-2A.38.38,0,0,1,23.87,4l1.33.23a.38.38,0,0,1,.31.44L21.83,26.15a.38.38,0,0,1-.76,0Z" fill="#fff"/><path d="M22.58,9l-5-.85L20.34,22Zm-5,0,4,.69L19.87,20Z" fill="#fff"/><path d="M14.39,7.77,5.08,9.65,8.35,25.87,17.65,24Zm-5.29,17L6.21,10.41l7.43-1.5,2.88,14.32Z" fill="#fff"/><path d="M16.8.43A.53.53,0,0,0,16.17,0l-4,.81a.53.53,0,0,0-.43.56,4,4,0,0,1-.06,1.12h0A3.48,3.48,0,0,1,5.56,3.74h0a4.19,4.19,0,0,1-.54-1,.53.53,0,0,0-.6-.34l-4,.81A.53.53,0,0,0,0,3.82l5.93,29.4a.53.53,0,0,0,.63.42l4-.81a.54.54,0,0,0,.42-.58,3.26,3.26,0,0,1,.08-1.09h0a3.48,3.48,0,0,1,6.11-1.23h0a4.21,4.21,0,0,1,.52,1,.53.53,0,0,0,.61.34l4-.81a.53.53,0,0,0,.42-.63ZM19,29.81a5.23,5.23,0,0,0-9.69,2l-2.28.46L1.43,4.29l2.28-.46a5.23,5.23,0,0,0,9.68-2l2.28-.46,5.63,27.94Z" fill="#fff"/></svg>