<?xml version="1.0" standalone="no"?>
<!DOCTYPE svg PUBLIC "-//W3C//DTD SVG 20010904//EN"
 "http://www.w3.org/TR/2001/REC-SVG-20010904/DTD/svg10.dtd">
<svg version="1.0" xmlns="http://www.w3.org/2000/svg"
 width="512.000000pt" height="512.000000pt" viewBox="0 0 512.000000 512.000000"
 preserveAspectRatio="xMidYMid meet">
<metadata>
Created by potrace 1.16, written by Peter Selinger 2001-2019
</metadata>
<g transform="translate(0.000000,512.000000) scale(0.100000,-0.100000)"
fill="#000000" stroke="none">
<path d="M1763 4684 c-68 -34 -63 134 -63 -2124 0 -2264 -5 -2091 65 -2124 47
-23 263 -23 310 0 70 33 65 -140 65 2124 0 2264 5 2091 -65 2124 -47 22 -266
22 -312 0z"/>
<path d="M2633 4693 c-12 -2 -34 -18 -48 -34 -24 -30 -25 -35 -25 -180 l0
-149 29 -32 29 -33 1222 0 1222 0 29 33 29 32 0 150 0 150 -29 32 -29 33
-1204 1 c-662 1 -1213 -1 -1225 -3z"/>
<path d="M125 3611 c-43 -19 -100 -78 -116 -118 -5 -13 -9 -50 -9 -80 0 -112
-4 -108 481 -496 242 -193 439 -354 439 -357 0 -3 -197 -164 -439 -357 -485
-388 -481 -384 -481 -496 0 -68 9 -94 52 -142 58 -67 155 -93 238 -63 38 13
1108 865 1157 921 72 83 64 213 -19 294 -74 72 -1081 872 -1124 893 -51 25
-126 26 -179 1z"/>
<path d="M2633 3413 c-12 -2 -34 -18 -48 -34 -24 -30 -25 -35 -25 -180 l0
-149 29 -32 29 -33 1222 0 1222 0 29 33 29 32 0 150 0 150 -29 32 -29 33
-1204 1 c-662 1 -1213 -1 -1225 -3z"/>
<path d="M2633 2133 c-12 -2 -34 -18 -48 -34 -24 -30 -25 -35 -25 -180 l0
-149 29 -32 29 -33 1222 0 1222 0 29 33 29 32 0 150 0 150 -29 32 -29 33
-1204 1 c-662 1 -1213 -1 -1225 -3z"/>
<path d="M2633 853 c-12 -2 -34 -18 -48 -34 -24 -30 -25 -35 -25 -180 l0 -149
29 -32 29 -33 1222 0 1222 0 29 33 29 32 0 150 0 150 -29 32 -29 33 -1204 1
c-662 1 -1213 -1 -1225 -3z"/>
</g>
</svg>
