<svg id="Capa_1" enable-background="new 0 0 512 512" height="512" viewBox="0 0 512 512" width="512" xmlns="http://www.w3.org/2000/svg"><g><path d="m497 120.5h-165.75v-27.937c0-17.817-14.495-32.313-32.312-32.313h-85.875c-17.817 0-32.312 14.495-32.312 32.313v27.937h-165.751c-8.284 0-15 6.716-15 15v274.958c0 22.768 18.523 41.292 41.292 41.292h429.416c22.769 0 41.292-18.523 41.292-41.292v-274.958c0-8.284-6.716-15-15-15zm-286.25-27.937c0-1.275 1.037-2.313 2.312-2.313h85.875c1.275 0 2.312 1.038 2.312 2.313v27.937h-90.5v-27.937zm271.25 57.937v63.663l-151.308 37.827c-1.756-6.334-7.549-10.99-14.442-10.99h-120.5c-6.893 0-12.686 4.656-14.442 10.991l-151.308-37.828v-63.663zm-180.75 150.75h-90.5v-30.25h90.5zm169.458 120.5h-429.416c-6.227 0-11.292-5.065-11.292-11.292v-165.371l150.75 37.688v33.476c0 8.284 6.716 15 15 15h120.5c8.284 0 15-6.716 15-15v-33.476l150.75-37.688v165.372c0 6.226-5.065 11.291-11.292 11.291z"/></g></svg>